<svg width="1092" height="315" viewBox="0 0 1092 315" fill="none" xmlns="http://www.w3.org/2000/svg">
<path d="M117.6 179C129.067 179 137.6 181.867 143.2 187.6C148.933 193.2 152.533 199.867 154 207.6C155.6 215.2 156.4 224 156.4 234V240H109.6C109.6 227.6 109.067 218.267 108 212C106.933 205.6 104.333 200.667 100.2 197.2C96.0667 193.733 89.5333 192 80.6 192H59V239.8H15V92H97C117.8 92 132.533 96.1333 141.2 104.4C149.867 112.667 154.2 122.867 154.2 135C154.2 148.067 150.867 157.667 144.2 163.8C137.533 169.933 128.667 173 117.6 173H101.4V179H117.6ZM89.4 161C96.4667 161 101.667 159.267 105 155.8C108.467 152.2 110.2 147.6 110.2 142C110.2 136.4 108.4 131.867 104.8 128.4C101.333 124.8 96.2 123 89.4 123H59V161H89.4ZM226.383 123V150.6H305.583V179.6H226.383V209H305.583V240H182.383V92H305.583V123H226.383ZM619.038 240L544.038 120.4H538.038C543.371 129.733 547.838 139.933 551.438 151C555.171 162.067 557.038 172.4 557.038 182V240H515.438V92H571.238L571.438 91.8V92L646.638 211.4H652.638C647.304 202.6 642.771 192.733 639.038 181.8C635.438 170.867 633.638 160.267 633.638 150V92H675.238V240H619.038ZM752.188 240H708.188V92H752.188V240ZM825.164 124V152.2H904.364V183.8H825.164V240H783.164V92H906.364V124H825.164ZM966.1 92C975.033 107.733 981.767 120.333 986.3 129.8C990.967 139.133 994.167 146.8 995.9 152.8C997.767 158.667 998.7 164.267 998.7 169.6C998.7 171.733 998.433 175.2 997.9 180H1005.9C1005.1 173.867 1004.7 169.533 1004.7 167C1004.7 159.4 1006.9 150.333 1011.3 139.8C1015.7 129.133 1024.1 113.2 1036.5 92H1088.3L1023.9 189.4V240H979.9V192L915.5 92H966.1Z" fill="#FFF8E8"/>
<g clip-path="url(#clip0_325_3)">
<path fill-rule="evenodd" clip-rule="evenodd" d="M445.292 92.7902V147.89C445.292 165.155 442.46 178.439 436.796 187.746C431.266 197.052 422.837 201.705 411.508 201.705C400.315 201.705 391.885 196.918 386.221 187.341C380.557 177.765 377.724 164.614 377.724 147.89V95.1855C373.863 101.783 366.702 106.214 358.506 106.214H352.437C344.241 106.214 337.08 101.783 333.219 95.1855V160.231C333.219 178.844 336.658 194.085 343.536 205.954C350.549 217.823 359.922 226.455 371.656 231.85C383.389 237.11 396.673 239.74 411.508 239.74C426.344 239.74 439.628 237.11 451.361 231.85C463.095 226.455 472.4 217.823 479.279 205.954C486.291 194.085 489.798 178.844 489.798 160.231V91.2276C486.786 99.9495 478.504 106.214 468.759 106.214H465.725C456.571 106.214 448.71 100.688 445.292 92.7902Z" fill="#FFF8E8"/>
<path d="M333.219 71.8208C333.219 64.5581 339.106 58.6705 346.368 58.6705H364.575C371.837 58.6705 377.724 64.5581 377.724 71.8208V80.9249C377.724 93.2157 367.762 103.179 355.472 103.179C343.182 103.179 333.219 93.2157 333.219 80.9249V71.8208Z" fill="#F67E7D"/>
<path d="M445.494 80.9249C445.494 68.6341 455.457 58.6705 467.747 58.6705C480.037 58.6705 490 68.6341 490 80.9249C490 93.2157 480.037 103.179 467.747 103.179C455.457 103.179 445.494 93.2157 445.494 80.9249Z" fill="#F67E7D"/>
<path d="M314 41.6571L355.634 26.9375L397.773 41.1572L355.634 53.8749L314 41.6571Z" fill="#FFF8E8"/>
<path fill-rule="evenodd" clip-rule="evenodd" d="M379.162 46.1997L355.8 53.533L330.587 46.1997V65.5439C332.031 59.8491 337.19 55.6359 343.333 55.6359H366.598C372.505 55.6359 377.502 59.5314 379.162 64.8939V46.1997Z" fill="#FFF8E8"/>
</g>
<defs>
<clipPath id="clip0_325_3">
<rect width="176" height="239.74" fill="white" transform="translate(314)"/>
</clipPath>
</defs>
</svg>
