<svg width="80" height="80" viewBox="0 0 80 80" fill="none" xmlns="http://www.w3.org/2000/svg">
<path d="M0 32C0 16.9151 0 9.37258 4.68629 4.68629C9.37258 0 16.9151 0 32 0H48C63.0849 0 70.6274 0 75.3137 4.68629C80 9.37258 80 16.9151 80 32V48C80 63.0849 80 70.6274 75.3137 75.3137C70.6274 80 63.0849 80 48 80H32C16.9151 80 9.37258 80 4.68629 75.3137C0 70.6274 0 63.0849 0 48V32Z" fill="#FFF8E8"/>
<path fill-rule="evenodd" clip-rule="evenodd" d="M46.5379 35.0044V45.0226C46.5379 48.1616 46.023 50.577 44.9931 52.2691C43.9877 53.9612 42.4552 54.8072 40.3954 54.8072C38.3601 54.8072 36.8276 53.9367 35.7977 52.1956C34.7678 50.4544 34.2529 48.0634 34.2529 45.0226V35.4399C33.5508 36.6395 32.2488 37.4451 30.7586 37.4451H29.6552C28.165 37.4451 26.863 36.6395 26.1609 35.4399V47.2665C26.1609 50.6506 26.7862 53.4218 28.0368 55.5797C29.3119 57.7376 31.0161 59.3072 33.1494 60.2881C35.2828 61.2445 37.6981 61.7227 40.3954 61.7227C43.0928 61.7227 45.508 61.2445 47.6414 60.2881C49.7747 59.3072 51.4667 57.7376 52.7172 55.5797C53.9923 53.4218 54.6299 50.6506 54.6299 47.2665V34.7203C54.0822 36.3061 52.5764 37.4451 50.8046 37.4451H50.2529C48.5887 37.4451 47.1594 36.4403 46.5379 35.0044Z" fill="#191516"/>
<path d="M26.1609 31.1917C26.1609 29.8712 27.2313 28.8008 28.5517 28.8008H31.8621C33.1825 28.8008 34.2529 29.8712 34.2529 31.1917V32.847C34.2529 35.0817 32.4414 36.8933 30.2069 36.8933C27.9724 36.8933 26.1609 35.0817 26.1609 32.847V31.1917Z" fill="#F67E7D"/>
<path d="M46.5747 32.847C46.5747 30.6123 48.3862 28.8008 50.6207 28.8008C52.8552 28.8008 54.6667 30.6123 54.6667 32.847C54.6667 35.0817 52.8552 36.8933 50.6207 36.8933C48.3862 36.8933 46.5747 35.0817 46.5747 32.847Z" fill="#F67E7D"/>
<path d="M22.6667 25.7074L30.2365 23.0311L37.8982 25.6165L30.2365 27.9288L22.6667 25.7074Z" fill="#040F16"/>
<path fill-rule="evenodd" clip-rule="evenodd" d="M34.5142 26.5333L30.2667 27.8667L25.6824 26.5333V30.0505C25.945 29.0151 26.883 28.249 28 28.249H32.2299C33.3039 28.249 34.2126 28.9573 34.5142 29.9323V26.5333Z" fill="#040F16"/>
</svg>
