<svg width="1074" height="216" viewBox="0 0 1074 216" fill="none" xmlns="http://www.w3.org/2000/svg">
<path d="M951.1 65.0623C960.033 80.7956 966.767 93.3956 971.3 102.862C975.967 112.196 979.167 119.862 980.9 125.862C982.767 131.729 983.7 137.329 983.7 142.662C983.7 144.796 983.433 148.262 982.9 153.062H990.9C990.1 146.929 989.7 142.596 989.7 140.062C989.7 132.462 991.9 123.396 996.3 112.862C1000.7 102.196 1009.1 86.2623 1021.5 65.0623H1073.3L1008.9 162.462V213.062H964.9V165.062L900.5 65.0623H951.1Z" fill="#FFF8E8"/>
<path d="M810.164 97.0623V125.262H889.364V156.862H810.164V213.062H768.164V65.0623H891.364V97.0623H810.164Z" fill="#FFF8E8"/>
<path d="M737.188 213.062H693.188V65.0623H737.188V213.062Z" fill="#FFF8E8"/>
<path d="M604.038 213.062L529.037 93.4623H523.037C528.371 102.796 532.837 112.996 536.438 124.062C540.171 135.129 542.037 145.462 542.037 155.062V213.062H500.438V65.0623H556.237L556.438 64.8623V65.0623L631.638 184.462H637.638C632.304 175.662 627.771 165.796 624.037 154.862C620.437 143.929 618.638 133.329 618.638 123.062V65.0623H660.237V213.062H604.038Z" fill="#FFF8E8"/>
<path d="M211.383 96.0623V123.662H290.583V152.662H211.383V182.062H290.583V213.062H167.383V65.0623H290.583V96.0623H211.383Z" fill="#FFF8E8"/>
<path d="M102.6 152.062C114.067 152.062 122.6 154.929 128.2 160.662C133.933 166.262 137.533 172.929 139 180.662C140.6 188.262 141.4 197.062 141.4 207.062V213.062H94.6C94.6 200.662 94.0667 191.329 93 185.062C91.9333 178.662 89.3333 173.729 85.2 170.262C81.0667 166.796 74.5333 165.062 65.6 165.062H44V212.862H0V65.0623H82C102.8 65.0623 117.533 69.1956 126.2 77.4623C134.867 85.729 139.2 95.929 139.2 108.062C139.2 121.129 135.867 130.729 129.2 136.862C122.533 142.996 113.667 146.062 102.6 146.062H86.4V152.062H102.6ZM74.4 134.062C81.4667 134.062 86.6667 132.329 90 128.862C93.4667 125.262 95.2 120.662 95.2 115.062C95.2 109.462 93.4 104.929 89.8 101.462C86.3333 97.8623 81.2 96.0623 74.4 96.0623H44V134.062H74.4Z" fill="#FFF8E8"/>
<path fill-rule="evenodd" clip-rule="evenodd" d="M430.292 65.8526V120.953C430.292 138.217 427.46 151.502 421.796 160.808C416.266 170.115 407.837 174.768 396.508 174.768C385.315 174.768 376.885 169.98 371.221 160.404C365.557 150.827 362.724 137.677 362.724 120.953V68.2479C358.863 74.8457 351.702 79.2763 343.506 79.2763H337.437C329.241 79.2763 322.08 74.8457 318.219 68.2479V133.294C318.219 151.906 321.658 167.148 328.536 179.016C335.549 190.885 344.922 199.518 356.656 204.912C368.389 210.172 381.673 212.802 396.508 212.802C411.344 212.802 424.628 210.172 436.361 204.912C448.095 199.518 457.4 190.885 464.279 179.016C471.291 167.148 474.798 151.906 474.798 133.294V64.29C471.786 73.0119 463.504 79.2763 453.759 79.2763H450.724C441.571 79.2763 433.71 73.7504 430.292 65.8526Z" fill="#FFF8E8"/>
<path d="M318.219 44.8837C318.219 37.621 324.106 31.7334 331.368 31.7334H349.575C356.837 31.7334 362.724 37.621 362.724 44.8837V53.9877C362.724 66.2785 352.762 76.2421 340.472 76.2421C328.182 76.2421 318.219 66.2785 318.219 53.9877V44.8837Z" fill="#F67E7D"/>
<path d="M430.494 53.9877C430.494 41.697 440.457 31.7334 452.747 31.7334C465.037 31.7334 475 41.697 475 53.9877C475 66.2785 465.037 76.2421 452.747 76.2421C440.457 76.2421 430.494 66.2785 430.494 53.9877Z" fill="#F67E7D"/>
<path d="M299 14.7196L340.634 0L382.773 14.2197L340.634 26.9375L299 14.7196Z" fill="#FFF8E8"/>
<path fill-rule="evenodd" clip-rule="evenodd" d="M364.162 19.2623L340.8 26.5956L315.587 19.2623V38.6064C317.031 32.9117 322.19 28.6984 328.333 28.6984H351.598C357.505 28.6984 362.502 32.5939 364.162 37.9564V19.2623Z" fill="#FFF8E8"/>
</svg>
